<svg width="40" height="40" viewBox="0 0 40 40" fill="none" xmlns="http://www.w3.org/2000/svg">
  <rect width="40" height="40" rx="20" fill="#F2F2F2" fill-opacity="0.6"/>
  <path d="M28.84 13.61C28.3292 13.099 27.7228 12.6936 27.0554 12.4171C26.3879 12.1405 25.6725 11.9982 24.95 11.9982C24.2275 11.9982 23.5121 12.1405 22.8446 12.4171C22.1772 12.6936 21.5708 13.099 21.06 13.61L20 14.67L18.94 13.61C17.9083 12.5783 16.509 11.9987 15.05 11.9987C13.591 11.9987 12.1917 12.5783 11.16 13.61C10.1283 14.6417 9.54871 16.041 9.54871 17.5C9.54871 18.959 10.1283 20.3583 11.16 21.39L12.22 22.45L20 30.23L27.78 22.45L28.84 21.39C29.351 20.8792 29.7563 20.2728 30.0329 19.6054C30.3095 18.9379 30.4518 18.2225 30.4518 17.5C30.4518 16.7775 30.3095 16.0621 30.0329 15.3946C29.7563 14.7272 29.351 14.1208 28.84 13.61V13.61Z" stroke="#333333" stroke-width="2" stroke-linecap="round" stroke-linejoin="round"/>
</svg>
